<?xml version="1.0" standalone="no"?>
<!DOCTYPE svg PUBLIC "-//W3C//DTD SVG 20010904//EN"
 "http://www.w3.org/TR/2001/REC-SVG-20010904/DTD/svg10.dtd">
<svg version="1.0" xmlns="http://www.w3.org/2000/svg"
 width="20.000000pt" height="20.000000pt" viewBox="0 0 20.000000 20.000000"
 preserveAspectRatio="xMidYMid meet">

<g transform="translate(0.000000,20.000000) scale(0.100000,-0.100000)"
fill="#000000" stroke="none">
<path d="M0 178 c1 -82 96 -178 176 -178 20 0 24 5 24 29 0 24 -5 29 -30 33
-18 3 -35 -1 -45 -11 -14 -14 -19 -12 -52 21 -34 35 -36 38 -21 55 10 11 14
28 11 46 -4 22 -11 27 -34 27 -23 0 -29 -4 -29 -22z"/>
</g>
</svg>
