<?xml version="1.0" standalone="no"?>
<!DOCTYPE svg PUBLIC "-//W3C//DTD SVG 20010904//EN"
 "http://www.w3.org/TR/2001/REC-SVG-20010904/DTD/svg10.dtd">
<svg version="1.0" xmlns="http://www.w3.org/2000/svg"
 width="20.000000pt" height="16.000000pt" viewBox="0 0 20.000000 16.000000"
 preserveAspectRatio="xMidYMid meet">

<g transform="translate(0.000000,16.000000) scale(0.100000,-0.100000)"
fill="#000000" stroke="none">
<path d="M29 131 c-35 -36 -37 -70 -5 -107 22 -26 25 -27 57 -14 43 17 79 50
103 95 22 40 17 52 -13 35 -17 -8 -26 -8 -43 5 -34 23 -66 18 -99 -14z m52 -4
c-1 -12 -15 -9 -19 4 -3 6 1 10 8 8 6 -3 11 -8 11 -12z m49 -5 c0 -13 -12 -22
-22 -16 -10 6 -1 24 13 24 5 0 9 -4 9 -8z m-80 -22 c0 -5 -4 -10 -10 -10 -5 0
-10 5 -10 10 0 6 5 10 10 10 6 0 10 -4 10 -10z m102 -22 c-21 -32 -68 -61 -59
-35 2 6 9 11 15 10 6 -2 19 11 29 27 9 17 21 30 26 30 5 0 0 -14 -11 -32z
m-102 -16 c0 -13 -12 -22 -22 -16 -10 6 -1 24 13 24 5 0 9 -4 9 -8z"/>
</g>
</svg>
