<?xml version="1.0" standalone="no"?>
<!DOCTYPE svg PUBLIC "-//W3C//DTD SVG 20010904//EN"
 "http://www.w3.org/TR/2001/REC-SVG-20010904/DTD/svg10.dtd">
<svg version="1.0" xmlns="http://www.w3.org/2000/svg"
 width="20.000000pt" height="20.000000pt" viewBox="0 0 20.000000 20.000000"
 preserveAspectRatio="xMidYMid meet">

<g transform="translate(0.000000,20.000000) scale(0.100000,-0.100000)"
fill="#000000" stroke="none">
<path d="M65 191 c-32 -13 -55 -46 -62 -84 -5 -32 -1 -41 30 -72 51 -51 122
-43 153 16 23 45 17 78 -20 115 -34 34 -61 41 -101 25z m90 -36 c50 -49 15
-135 -55 -135 -34 0 -80 40 -80 71 0 75 85 115 135 64z"/>
<path d="M90 125 c0 -34 1 -35 38 -34 30 2 32 3 10 6 -23 4 -28 9 -28 34 0 16
-4 29 -10 29 -5 0 -10 -16 -10 -35z"/>
</g>
</svg>
