<?xml version="1.0" standalone="no"?>
<!DOCTYPE svg PUBLIC "-//W3C//DTD SVG 20010904//EN"
 "http://www.w3.org/TR/2001/REC-SVG-20010904/DTD/svg10.dtd">
<svg version="1.0" xmlns="http://www.w3.org/2000/svg"
 width="155.000000pt" height="75.000000pt" viewBox="0 0 155.000000 75.000000"
 preserveAspectRatio="xMidYMid meet">

<g transform="translate(0.000000,75.000000) scale(0.100000,-0.100000)"
fill="#000000" stroke="none">
<path d="M192 557 c-83 -84 -152 -157 -152 -162 0 -6 69 -79 153 -163 l152
-152 90 90 90 90 332 0 c307 0 332 -1 337 -17 3 -10 10 -46 17 -81 l12 -62 89
0 89 0 11 31 c6 17 22 52 36 77 22 42 26 61 30 185 l4 137 -478 0 -479 0 -90
90 -90 90 -153 -153z m153 123 c-3 -5 0 -10 7 -10 7 0 47 -34 88 -75 l74 -75
473 0 473 0 0 -125 0 -125 -40 -81 -41 -80 -71 3 -71 3 -14 60 c-7 33 -15 70
-18 83 l-6 23 -339 -3 -340 -3 -80 -80 -81 -80 -144 146 c-80 80 -148 143
-150 140 -3 -3 61 -73 142 -156 l148 -150 -153 150 -152 150 147 147 c141 141
162 161 148 138z"/>
<path d="M205 538 l-130 -133 133 130 c123 120 137 135 129 135 -1 0 -61 -60
-132 -132z"/>
<path d="M262 539 c-34 -10 -37 -14 -46 -67 -5 -30 -4 -32 19 -26 l25 6 0
-101 0 -101 50 0 50 0 0 44 c0 42 1 44 37 51 53 10 93 54 93 103 0 47 -21 75
-69 91 -40 13 -113 13 -159 0z m145 -86 c7 -17 -21 -43 -44 -43 -13 0 -19 61
-7 73 9 9 44 -11 51 -30z"/>
<path d="M530 395 l0 -75 59 0 c44 0 60 4 65 16 9 24 9 24 -34 24 -22 0 -40 5
-40 10 0 6 16 10 35 10 24 0 35 5 35 15 0 10 -11 15 -35 15 -19 0 -35 5 -35
10 0 6 16 10 35 10 28 0 35 4 35 20 0 18 -7 20 -60 20 l-60 0 0 -75z"/>
<path d="M698 400 c-25 -67 -25 -71 -8 -80 15 -8 20 -4 30 23 l11 32 15 -27
c18 -35 28 -35 43 -1 l13 28 14 -28 c15 -28 28 -34 39 -17 8 13 -34 142 -45
135 -4 -2 -13 -18 -20 -35 -16 -39 -26 -38 -44 5 -8 19 -16 35 -18 35 -2 0
-15 -32 -30 -70z"/>
<path d="M903 455 c-26 -18 -38 -67 -23 -94 40 -77 150 -53 150 32 0 63 -74
99 -127 62z m75 -61 c4 -27 -26 -40 -46 -20 -21 20 -8 48 20 44 14 -2 24 -11
26 -24z"/>
<path d="M1040 395 c0 -73 1 -75 25 -75 21 0 25 5 25 31 0 24 4 30 18 27 10
-2 18 -14 20 -31 2 -19 9 -27 23 -27 17 0 19 8 19 75 0 68 -2 75 -20 75 -15 0
-20 -7 -20 -25 0 -18 -5 -25 -20 -25 -15 0 -20 7 -20 25 0 20 -5 25 -25 25
-24 0 -25 -2 -25 -75z"/>
<path d="M1202 428 c3 -41 4 -42 38 -43 l35 0 3 -107 3 -108 39 0 39 0 3 108
3 107 30 0 c28 1 30 3 33 43 l3 42 -116 0 -116 0 3 -42z"/>
<path d="M530 180 c0 -22 5 -40 10 -40 6 0 10 10 10 22 l0 21 23 -21 c29 -28
46 -29 22 -2 -17 19 -17 21 0 40 10 11 13 20 8 20 -6 0 -16 -7 -23 -15 -7 -8
-16 -15 -21 -15 -5 0 -9 7 -9 15 0 8 -4 15 -10 15 -5 0 -10 -18 -10 -40z"/>
<path d="M620 181 l0 -41 40 0 c22 0 40 3 41 8 8 61 5 67 -38 70 l-43 3 0 -40z
m70 19 c0 -5 -14 -10 -31 -10 -17 0 -28 4 -24 10 3 6 17 10 31 10 13 0 24 -4
24 -10z m0 -41 c0 -12 -47 -12 -54 0 -3 4 -3 10 0 13 7 8 54 -3 54 -13z"/>
<path d="M727 214 c-4 -4 -7 -23 -6 -43 0 -20 3 -30 6 -23 2 6 17 12 33 12 16
0 31 -6 34 -12 3 -7 4 5 3 27 -2 37 -5 40 -32 43 -17 2 -34 0 -38 -4z m61 -21
c-2 -11 -14 -19 -31 -21 -22 -3 -27 1 -27 17 0 17 6 21 31 21 24 0 30 -4 27
-17z"/>
<path d="M810 178 c0 -31 3 -38 13 -30 6 5 23 12 37 14 14 1 29 13 35 26 16
36 43 28 48 -15 l4 -38 1 37 c1 26 7 38 20 41 9 2 -22 5 -70 5 l-88 1 0 -41z
m73 25 c10 -10 -13 -33 -34 -33 -21 0 -33 15 -24 30 7 11 48 14 58 3z"/>
<path d="M992 183 c-2 -51 9 -54 40 -10 l23 32 6 -35 c6 -34 6 -34 8 9 l1 45
-34 -33 -35 -34 -4 34 c-3 31 -4 30 -5 -8z"/>
<path d="M1091 178 c0 -24 3 -37 6 -30 2 6 14 12 26 12 32 0 49 15 45 36 -2
14 -13 20 -41 22 l-37 3 1 -43z m67 15 c-2 -11 -14 -19 -31 -21 -22 -3 -27 1
-27 17 0 17 6 21 31 21 24 0 30 -4 27 -17z"/>
</g>
</svg>
