<?xml version="1.0" standalone="no"?>
<!DOCTYPE svg PUBLIC "-//W3C//DTD SVG 20010904//EN"
 "http://www.w3.org/TR/2001/REC-SVG-20010904/DTD/svg10.dtd">
<svg version="1.0" xmlns="http://www.w3.org/2000/svg"
 width="35.000000pt" height="35.000000pt" viewBox="0 0 35.000000 35.000000"
 preserveAspectRatio="xMidYMid meet">

<g transform="translate(0.000000,35.000000) scale(0.100000,-0.100000)"
fill="#000000" stroke="none">
<path d="M115 335 c-141 -50 -151 -244 -15 -312 77 -40 149 -25 207 40 74 84
46 212 -57 265 -51 25 -79 27 -135 7z m55 -37 c0 -10 3 -9 9 1 6 9 18 11 35 7
16 -4 24 -11 20 -18 -5 -7 -3 -8 5 -4 7 5 21 0 32 -10 14 -13 16 -20 8 -31 -9
-10 -7 -13 10 -13 19 0 20 -5 18 -57 -2 -51 -4 -58 -21 -55 -16 3 -18 1 -8
-11 9 -11 8 -18 -7 -31 -11 -10 -25 -15 -31 -11 -6 3 -9 1 -8 -7 4 -17 -43
-23 -53 -6 -7 11 -9 11 -9 0 0 -9 -10 -12 -27 -10 -17 2 -27 8 -25 16 1 8 -2
10 -8 7 -6 -4 -20 1 -31 11 -15 14 -17 20 -6 32 10 13 9 15 -5 9 -20 -7 -26 8
-27 67 0 30 4 39 19 43 15 4 18 9 10 18 -13 15 23 50 41 39 7 -4 10 -3 5 4 -7
11 8 20 37 21 9 1 17 -5 17 -11z"/>
<path d="M110 200 c56 -43 64 -44 110 -15 51 32 45 45 -9 21 -35 -17 -41 -17
-69 -2 -43 22 -62 20 -32 -4z"/>
</g>
</svg>
