<?xml version="1.0" standalone="no"?>
<!DOCTYPE svg PUBLIC "-//W3C//DTD SVG 20010904//EN"
 "http://www.w3.org/TR/2001/REC-SVG-20010904/DTD/svg10.dtd">
<svg version="1.0" xmlns="http://www.w3.org/2000/svg"
 width="35.000000pt" height="32.000000pt" viewBox="0 0 35.000000 32.000000"
 preserveAspectRatio="xMidYMid meet">

<g transform="translate(0.000000,32.000000) scale(0.100000,-0.100000)"
fill="#000000" stroke="none">
<path d="M130 249 c-63 -33 -117 -63 -119 -65 -2 -2 1 -14 7 -26 10 -22 11
-22 11 -2 1 15 23 32 91 68 75 38 97 46 124 40 33 -6 63 -44 51 -65 -4 -5 3
-9 15 -9 12 0 20 3 18 8 -18 42 -63 112 -72 112 -6 0 -63 -28 -126 -61z"/>
<path d="M240 215 c0 -9 5 -15 11 -13 6 2 11 8 11 13 0 5 -5 11 -11 13 -6 2
-11 -4 -11 -13z"/>
<path d="M140 205 c-11 -13 -6 -15 34 -15 45 0 61 12 30 24 -26 10 -51 7 -64
-9z"/>
<path d="M50 85 l0 -85 150 0 150 0 0 85 0 85 -150 0 -150 0 0 -85z m260 45
c11 -11 20 -31 20 -45 0 -50 -31 -65 -127 -65 -71 1 -92 4 -110 19 -26 22 -32
81 -9 81 8 0 16 7 20 15 4 12 25 15 96 15 77 0 93 -3 110 -20z"/>
<path d="M168 119 c-27 -15 -23 -57 7 -71 36 -16 75 3 75 36 0 38 -45 57 -82
35z"/>
<path d="M100 85 c0 -9 5 -15 11 -13 6 2 11 8 11 13 0 5 -5 11 -11 13 -6 2
-11 -4 -11 -13z"/>
<path d="M277 94 c-8 -8 1 -24 14 -24 5 0 9 7 9 15 0 15 -12 20 -23 9z"/>
</g>
</svg>
