<?xml version="1.0" standalone="no"?>
<!DOCTYPE svg PUBLIC "-//W3C//DTD SVG 20010904//EN"
 "http://www.w3.org/TR/2001/REC-SVG-20010904/DTD/svg10.dtd">
<svg version="1.0" xmlns="http://www.w3.org/2000/svg"
 width="29.000000pt" height="35.000000pt" viewBox="0 0 29.000000 35.000000"
 preserveAspectRatio="xMidYMid meet">

<g transform="translate(0.000000,35.000000) scale(0.100000,-0.100000)"
fill="#000000" stroke="none">
<path d="M0 216 c0 -179 0 -180 160 -200 63 -8 118 -12 122 -10 4 3 8 81 8
175 l0 169 -145 0 -145 0 0 -134z m253 -36 c-1 -72 -4 -130 -8 -130 -3 -1 -33
15 -66 35 -65 38 -81 43 -73 21 5 -13 -20 -46 -34 -46 -28 1 -33 22 -35 133
l-2 117 110 0 110 0 -2 -130z"/>
<path d="M70 250 c0 -6 32 -10 75 -10 43 0 75 4 75 10 0 6 -32 10 -75 10 -43
0 -75 -4 -75 -10z"/>
<path d="M70 200 c0 -6 32 -10 75 -10 43 0 75 4 75 10 0 6 -32 10 -75 10 -43
0 -75 -4 -75 -10z"/>
</g>
</svg>
