<?xml version="1.0" standalone="no"?>
<!DOCTYPE svg PUBLIC "-//W3C//DTD SVG 20010904//EN"
 "http://www.w3.org/TR/2001/REC-SVG-20010904/DTD/svg10.dtd">
<svg version="1.0" xmlns="http://www.w3.org/2000/svg"
 width="34.000000pt" height="35.000000pt" viewBox="0 0 34.000000 35.000000"
 preserveAspectRatio="xMidYMid meet">

<g transform="translate(0.000000,35.000000) scale(0.100000,-0.100000)"
fill="#000000" stroke="none">
<path d="M93 331 c-44 -21 -73 -62 -73 -105 0 -14 -4 -28 -10 -31 -14 -9 -13
-58 2 -73 7 -7 20 -12 30 -12 22 0 24 -23 3 -40 -9 -7 -13 -15 -10 -18 2 -3
-3 -11 -13 -18 -15 -11 -14 -14 13 -24 18 -7 44 -9 65 -4 45 9 95 9 140 0 20
-5 47 -3 64 3 23 9 26 14 16 26 -7 8 -9 15 -4 15 5 0 -2 7 -14 16 -27 18 -29
44 -4 44 10 0 23 5 30 12 15 15 16 64 2 73 -5 3 -10 17 -10 31 0 35 -24 78
-55 98 -42 27 -122 31 -172 7z m151 -13 c31 -13 51 -42 60 -86 10 -44 -1 -40
-20 8 -19 48 -55 70 -113 70 -57 0 -88 -18 -108 -61 -10 -21 -21 -39 -25 -39
-22 0 19 84 50 103 32 19 119 23 156 5z m-31 -110 c19 1 42 -5 52 -12 44 -32
-29 -159 -92 -159 -27 0 -82 29 -83 44 0 4 18 2 40 -3 42 -11 75 -5 65 12 -3
5 -26 9 -52 8 -37 -2 -49 2 -64 21 -26 32 -24 56 6 69 13 6 27 23 31 36 l6 25
29 -21 c17 -13 42 -21 62 -20z"/>
<path d="M110 165 c0 -8 7 -15 15 -15 8 0 15 7 15 15 0 8 -7 15 -15 15 -8 0
-15 -7 -15 -15z"/>
<path d="M200 165 c0 -8 7 -15 15 -15 8 0 15 7 15 15 0 8 -7 15 -15 15 -8 0
-15 -7 -15 -15z"/>
</g>
</svg>
