<?xml version="1.0" standalone="no"?>
<!DOCTYPE svg PUBLIC "-//W3C//DTD SVG 20010904//EN"
 "http://www.w3.org/TR/2001/REC-SVG-20010904/DTD/svg10.dtd">
<svg version="1.0" xmlns="http://www.w3.org/2000/svg"
 width="35.000000pt" height="35.000000pt" viewBox="0 0 35.000000 35.000000"
 preserveAspectRatio="xMidYMid meet">

<g transform="translate(0.000000,35.000000) scale(0.100000,-0.100000)"
fill="#000000" stroke="none">
<path d="M51 320 c0 -33 1 -34 11 -12 8 17 8 26 0 34 -9 9 -12 4 -11 -22z"/>
<path d="M220 320 c0 -16 5 -30 10 -30 6 0 10 14 10 30 0 17 -4 30 -10 30 -5
0 -10 -13 -10 -30z"/>
<path d="M4 287 c-2 -7 -3 -58 -2 -113 l3 -99 73 -3 c45 -2 72 1 72 8 0 6 -27
10 -65 10 l-65 0 0 75 0 76 123 -3 c110 -3 122 -5 119 -20 -2 -10 3 -18 10
-18 9 0 12 14 10 50 -4 52 -15 62 -38 33 -13 -17 -15 -17 -28 0 -18 23 -131
25 -140 2 -7 -19 -35 -19 -42 0 -7 19 -23 19 -30 2z"/>
<path d="M50 201 c0 -15 6 -21 21 -21 14 0 19 5 17 17 -5 26 -38 29 -38 4z"/>
<path d="M110 200 c0 -13 7 -20 20 -20 13 0 20 7 20 20 0 13 -7 20 -20 20 -13
0 -20 -7 -20 -20z"/>
<path d="M180 200 c0 -13 7 -20 20 -20 13 0 20 7 20 20 0 13 -7 20 -20 20 -13
0 -20 -7 -20 -20z"/>
<path d="M205 145 c-25 -24 -32 -65 -19 -100 8 -19 55 -45 84 -45 32 0 80 53
80 88 0 72 -94 109 -145 57z m109 -17 c48 -68 -36 -146 -94 -88 -24 24 -26 67
-3 92 23 26 78 24 97 -4z"/>
<path d="M248 124 c-5 -4 -8 -18 -8 -31 0 -20 5 -23 36 -23 21 0 33 4 29 10
-3 6 -15 10 -25 10 -11 0 -20 8 -22 21 -2 11 -6 17 -10 13z"/>
<path d="M50 130 c0 -13 7 -20 20 -20 13 0 20 7 20 20 0 13 -7 20 -20 20 -13
0 -20 -7 -20 -20z"/>
<path d="M110 130 c0 -13 7 -20 20 -20 13 0 20 7 20 20 0 13 -7 20 -20 20 -13
0 -20 -7 -20 -20z"/>
</g>
</svg>
